<?xml version="1.0" encoding="UTF-8"?>
<svg id="Layer_2" data-name="Layer 2" xmlns="http://www.w3.org/2000/svg" viewBox="0 0 234.7 239.2">
  <defs>
    <style>
      .cls-1 {
        fill: #004910;
      }

      .cls-2 {
        fill: #80c342;
      }
    </style>
  </defs>
  <g id="Layer_1-2" data-name="Layer 1">
    <path class="cls-2" d="M104.85,77.6c-.05-.01-.13.02-.16,0-.03-.02.03-.15,0-.16l.16.16Z"/>
    <path class="cls-2" d="M47.87,109.09v.16c.1-.05.1-.11,0-.16ZM89.43,85.15c0,.1-.02.3,0,.32.18.16.68-.19.8-.4l-.8.08ZM91.99,84.83c-.35.18.09.65-.64.49l.41.47c0-.18.35-.33.37-.35.09-.21-.14-.4-.13-.61ZM87.98,86.92c.47-1.14-.19-.9-.42-1.32-.07-.12.07-.41-.09-.57-.53-.52-2.45.5-2.72.88-.08.11-.11.89-.06,1.04.11.3.3.25.38.42.08.16.1.78.18.84.57.36.48-.46.61-.74.1-.2.24-.21.29-.28.1-.15.04-.38.07-.41.01-.03.44.2.64,0-.25.9.89,1.12.97.4,0-.04-.58-.16-.33-.72l.48.48ZM92.24,84.66v.16c.1-.05.1-.1,0-.16ZM91.92,84.51v.16c.1-.05.1-.1,0-.16ZM94,83.54v.16c.1-.05.1-.1,0-.16ZM95.65,81.5c-.46-.19-.95.1-1.4.12-.04.04.35.66.31.87-.04.27-.61.05-.64.41.58.03.51.5.49.97.41-.53.82-.07,1.18-.17.27-.08.21-.86,1.06-.31.21-.27-.7-1.76-1.01-1.89ZM84.43,81.9c-.05-.11-.18-.13-.24-.19-.49-.64-.95-.98-1.8-.63-.18.07-.19.32-.23.34-.07.03-.24-.13-.27-.11-.04.03-.42.82-.42.87-.02.15.08.58.13.76.77,2.8,3.7.81,2.83-1.04ZM148.83,80.66c-.63.11-.38.45-.47.6-.03.05-.23.05-.3.24-.2.49-.29,1.69.37,1.73v-.81c.18.83.42.53.89.51.09,0,.06.27.18.3.31.07.7-.04,1.02,0l-.48.48c1.04.01.64-.4.67-.45.04-.07.3-.09.35-.19.84-1.72-.57-2.71-2.22-2.4ZM87.74,79.61c-2.38-.12-2.67,3.22-.44,3.43,1.59.15,2.2-3.35.44-3.43ZM155.41,78.95c-1.75-.16-2.95,3.03-.44,2.71,2.09-.27,1.61-2.61.44-2.71ZM98.51,78.88l-.16.96.08-.64c-.78-.02-.33.47-.8.48.04.35.33.16.44.22.05.03.01.24.04.26.04.02.77-.3.79-.33.13-.14-.18-.82-.39-.95ZM104.78,78.72v.16c.1-.05.1-.1,0-.16ZM83.75,77.31c-1.99-.05-1.6,3.68.7,2.77.55-.21.99-.87.95-1.46-.03-.45-1.23-1.3-1.65-1.32ZM106.23,76.47c-.24-.52-.23.47-.57.16-.16-.16.29-.92-.75-.76-.64.1-.79.47-.86,1.08l.8-.32-.64.32.48.48c-.14-.08-.4-.3-.49-.07,0,.07.38.21.49.24.03,0,.07.18.16,0,.37.1.6-.32.88-.33.18,0-.05.4.24.33,0-.2.18-.35.18-.55s-.4.03-.33-.25c.16-.02.52-.09.41-.33ZM135.8,75.18v.16c.1-.05.1-.11,0-.16ZM133.63,75.02c-.12.23.1.43.16.33.12-.23-.1-.43-.16-.33ZM80.9,76.71c-.24-.29-.32-.8-.64-1.13-1.11-1.12-1.52-.24-1.6.98-.07,1.01.95,2,1.91,2.09.07,0,1.24-.53,1.28-.59.39-.62-.7-1.05-.95-1.35ZM120.05,74.54v.16c.1-.05.1-.11,0-.16ZM137.65,74.7s-.61.13-.81,0l.57.64c-.45-.1-.72-.43-.86-.86h0s-.02-.07-.03-.1c0-.04,0-.1,0-.16,0,0,.16,0,.16-.08-.02-.04-.06-.08-.1-.08.18-.01.75-.1.43-.24-.26-.14-.75-.33-.96-.08-.18.24-.18.36-.16.64l-.48-.48c.26.46-.37.52-.32.97l.29-.02c-.1.18,0,.55.03.98l.16-.81c.41-.1.58.1.64.49.14-.03.33.01.49,0l-.48-.64c.83.1.41.84.48.96.01.03.47-.14.64,0l-.24-.48c.56.85.61-.61.56-.64ZM135.72,75.75c.39-.03.55.26.47-.24-.2.04-.35.03-.47.24ZM128.48,75.18c-.07-.59.3-1.29-.48-1.12.4-.38-.92-1.01-1.2-.98-.17.02.02.42-.25.33.03-.24.02-.34-.23-.33-2.71.04-1.06,2.96.87,2.26l-.16-.64c.23.17.11.36.49.32,0,.04-.31.61-.34.64-.06.04-.41-.29-.47-.07.13.16.77.39.89.39.11,0,.1-.29.22-.38.16-.11.44.34.33-.41l-.8.41c.38-.44.54-.67,1.12-.41ZM133.3,73.42c.1-.29-.6-.18-.32.16-.1-.01-.22,0-.33,0,0-.07-.13-.12-.16-.16-.14-.24-.19-.41-.5-.41-.61,0-.36.17-.47.57-.24,0-.87.18-.64.48l.32-.09c-.18.16-.07.26,0,.36,0,.01,0,.03.01.04.19.75.1.07.16,0,.04-.04.41-.21.48-.32.21.43-.3.5-.3.55,0,.27.44.44-.17.33.66.38.9.11.96,1.05.4-.03-.1-.71,0-.81.02-.02.35,0,.48,0-.05.16-.3.51-.08.64.12-.44.43-.58.32,0,.1-.13.66-.47.24-.64.09-.19-.17-.41.48-.33.02-.35-.46-.13-.47-.24.03-.08.16-.19.16-.24.07-.02.11-.25.24-.32.44-.24-.13.43.32.33.51-.13-.58-1.09-.72-.97ZM110.01,74.44c-.03-.3.54-.2.27-.67-.03-.04-.68-.61-.72-.64-.53-.3-1.4-.21-1.83.21-.33.32.16.78-.16,1.21l.81-.24-.48.49.32.24h-.64c.18.31.12.33-.16.16.02.51-.19.69.31.55l-.16.41c.32-.19.33-.13.16.16.68-.33,1.26.24,1.6-.48l-.48-.32.64-.16c0,.32-.13.58.33.48-.3-.38.29-.31.16-.81.54.35-.24.95.81.97.53-1.12-.72-.89-.79-1.55ZM103,73.9c-.1-.18-1.09-.84-1.35-.9-.98-.23-2.2.69-2.39,1.66-.15.77.58,2.23,1.37,2.42.55.13.27-.27.45-.3.12-.01,0,.24.3.35.7.25,1.6-.4,1.22-1.15.29-.08.07.38.24.32.24-.09.09-.32.15-.44.02-.04.18-.04.18-.07.08-.31-.03-1.63-.18-1.89ZM113.86,72.94s.33-.29.26-.81c-.46-3.34-4.87-1.49-3.03,1.24.33.48.87.61,1.24,1.01l.09-.96.47.81c-.42-1.08.71-.23,1.09-.69.51-.62-.09-.57-.12-.6ZM118.7,70.59c-.98-.47-1.91-.68-2.91-.23l.16-.32-.66.07c-.02.46-.41.52-.44,1.01-.03.66,1.14,2.34,1.7,2.61.07.03.97.21,1,.16.06-.07-.1-.51.08-.48.24.95,1.52-.75,1.64-1.25.17-.7.1-1.26-.58-1.58ZM104.22,70.53c-.1-.21.68-.18.32-.48-.15-.13-.72.13-.87.33-.64.8-.52,2.59.22,3.3.4.38,1.56,1,2.1.71l-.33-.32c.38.02.47.05.57-.31.42-1.48-.16-3.49-2.01-3.22ZM126.03,69.92c-.93-.96-5.28-.83-4.92,1.13.02.09,1.04,1.43,1.11,1.47.28.17,1.64.31,1.97.26.13-.02.1-.27.18-.29.36-.1.78-.02,1.21-.29.65-.41.98-1.74.44-2.28ZM100.64,68.62c-.22.04-1.08.54-1.23.7-1.01,1.07.21,3.35,2,2,1.45-1.09.73-2.95-.76-2.7ZM131.37,68.72s-.48-.55-.52-.56c-1.12-.54-3.52.91-3.47,2.24.04.99,1.32,2.19,2.26,2.03,1.5-.26,2.35-2.4,1.72-3.7ZM134.72,67.83c-.81.13-1.86,1.13-1.88,1.99,0,.08.24.05.27.14.04.19.01.86.06.88.07.04.32-.04.42.04.13.1.1.42.24.58.58.61,1.6.32,2.12-.21,1.29-1.29.91-3.76-1.23-3.41ZM109.45,69.22c-.13-.55-.89-1.38-1.46-1.44-1.05-.11-.67.3-.91.63-.02.02-.24-.1-.38,0-.16.13-.51.7-.56.9-.1.44.3.04.33.07.21.38-.25.31-.29.35-.08.09.51,1.12.69,1.26,1.47,1.17,3.01-.04,2.59-1.79ZM121.84,66.24c-.44-.41-.88-.53-1.46-.55-3.59-.1-2.08,4.31-.21,4.01.35-.06,1.89-.98,2.12-1.27.61-.76.18-1.6-.45-2.18ZM116.86,66.39c-.5-.56-2.2-1.4-2.54-.3-.52,1.62.01,3.02,1.87,2.83,1.28-.13,1.4-1.72.67-2.53ZM113.17,66.63c-1.23-2.14-4.86-.98-3.31,1.54.12.18,1.01,1.09,1.15,1.18,2.02,1.07,3.19-.92,2.15-2.71ZM105.29,65.6c-1.6-1.55-3.94.38-2.43,2.5,1.29,1.82,3.02.39,2.95-1.33-.01-.21-.4-1.04-.53-1.17ZM127.87,64.47c-1.23-.48-2.62-.18-3.65.58-2.12,1.58,2.2,4.27,3.9,2.37.78-.89,1.09-2.43-.24-2.95ZM131.16,64.28c-2.18,1.23.15,3.64,1.35,3.28.15-.04,1.29-.82,1.39-.95.14-.16.66-1.26.66-1.45-.06-1.88-2.24-1.53-3.39-.88ZM99.02,63.16c-1.76.36-1.06,4.35,1.38,3.63,1.49-.44.56-4.03-1.38-3.63ZM136.96,62.84c-.63.13-1.38,1.55-1.4,2.17-.04,1.83,3.07,1.35,3.29-.74.13-1.17-.89-1.63-1.89-1.43ZM109.32,62.76c-.44-1.14-1.67-1.63-2.65-.87-1.11.85-.84,3.98,1.16,3.98,2.12,0,2.12-1.46,1.49-3.11ZM111.4,60.91c-2.51.58-.12,4.75,1.86,3.79,1.82-.89.73-4.38-1.86-3.79ZM119.33,61.93c-.17-1.5-2.99-2.17-3.82-1.49-.43.35-.58,1.43-.53,1.97.31,3.78,4.72,2.91,4.36-.49ZM122.01,60.11c-2.05.38-1.73,4.24-.16,4.6,1.19.27,2.36-.67,3-1.58,1.23-1.73-1.21-3.31-2.84-3.02ZM105.46,61.81c-.18-1.08-1.89-1.92-2.91-1.7-.3.07-1.2.84-1.32,1.1-1.21,2.66,4.73,3.67,4.22.6ZM128.88,59.35c-1.32,0-2.57,1.47-2.22,2.78.57,2.06,4.46,2.13,4.54.27.06-1.42-.72-3.04-2.32-3.05ZM136.65,60.2c-.29-1.38-2.79-1.69-3.87-1.38-.45.14-.69,1.01-.67,1.44.16,2.65,5.08,2.56,4.54-.07ZM98.22,58.02c-1.81.41-1.95,4.04.6,3.65,2.62-.4,2.09-4.27-.6-3.65ZM140.18,57.05c-1.38.16-2.85,2.45-1.69,3.47.06.04,1.01.33,1.12.33,2.26-.2,3.13-4.09.57-3.8ZM117.45,57.4c-.87.95-.19,2.38,1.01,2.51.89.1,3.31-.71,3.76-1.52,1.18-2.05-3.62-2.26-4.77-1ZM115.39,57.98c-.28-1.06-2.64-2.35-3.42-1.57-.35.35-.44,1.77-.33,2.26.39,1.69,4.44,1.89,3.75-.7ZM110.3,56.8c-.13-.18-.39-.23-.43-.29-.04-.06.14-.27.13-.28-.27-.26-1.7-.47-2.09-.25-.36.2-1.59,2.61-1.61,3.07-.02.75,1.63,1.46,2.34,1.51,1.04.08.64-.07,1.04-.39.45-.36.89-.65.97-1.31.04-.41-.11-1.72-.34-2.06ZM94.37,55.29c-2.31.44-1.12,3.3,1.08,3.2,2.14-.1,1.12-3.62-1.08-3.2ZM128.28,55.62c-.92-.97-2.95-.24-3.56.78-1.35,2.24,1.04,3.42,2.88,2.08.85-.62,1.52-1.98.69-2.85ZM133.39,55.42c-.61-1.4-3.15-1.18-3.62.23-.18.53-.24,2.14.2,2.47.56.41,2.63,0,3.14-.5.53-.52.58-1.54.29-2.2ZM105.78,54.98c-.68-.81-2.11-.69-2.85.02-2.63,2.51.78,5.39,2.8,2.97.56-.67.59-2.35.05-2.99ZM117.64,53.48c-1.54-.78-2.81-.23-3.3,1.38.41.18.27.76.73,1.18.71.67,2.3.3,2.91-.36.64-.7.55-1.75-.34-2.2ZM138.08,53.05c-.59-.41-1.64-.21-2.21.18-2.09,1.46-.26,5.35,2.05,3.98,1.3-.76,1.35-3.32.16-4.16ZM124.91,53.21c-.45-.46-3.45-.55-3.83-.13-.75.84.03,2.53.92,2.79,1.74.52,4.06-1.5,2.91-2.65ZM100.98,53.1c-.7-.6-2.99-.64-3.62.06-.84.93-.13,2.44.79,3,2.11,1.3,4.47-1.63,2.82-3.06ZM140.6,52.9c-2.09,3.03,1.77,3.85,2.9,1.86,1.06-1.88-1.83-3.41-2.9-1.86ZM112.36,53.13c-.41-2.1-4.92-1.36-3.63.9.48.84,1.4.86,2.24.67.26-.06,1.29-.6,1.4-.76.02-.03,0-.75,0-.81ZM145.48,51.75c-1.63.25-.74,2.79.73,2.34,1.12-.33.66-2.57-.73-2.34ZM90.51,50.63c-1.43.16-2.28,1.38-1.72,2.77.72,1.77,3.45,1.92,4.65.67,1.75-1.83-1.15-3.63-2.94-3.43ZM128.76,50.31c-1.46.44-1.38,3.39.28,3.35,2.36-.07,2.26-4.13-.28-3.35ZM132.71,50c-.33.28-.57,1.19-.52,1.63.21,1.76,2.3,1.29,3.22.34,1.97-2.04-1.53-2.97-2.7-1.97ZM106.09,49.84c-.67-.61-2.86-.84-3.58-.22-1.44,1.24,1.36,5.22,3.68,3.2.86-.74.66-2.29-.1-2.98ZM137.99,49.27c-.07.18-.3,1.26-.31,1.44-.1,1.52,2.05,1.01,2.8.3,1.91-1.8-1.52-4.06-2.49-1.75ZM99.72,48.74c-.69-.61-2.09-.7-2.94-.52-.69.14-1.6.93-1.46,1.69.34,1.8,3.14,2.35,4.4,1.25.89-.79.9-1.62,0-2.43ZM151.07,48.33c-.13-.16-.35,0-.38-.02-.11-.1-.1-.52-.21-.59-.38-.25-1.94.35-2.14.78-.14.32-.13.69-.05,1.01.56,2.43,3.38-.47,2.79-1.18ZM146.14,48.45c-1.06-2.01-4.05.55-2.83,1.79.73.74,3.68-.18,2.83-1.79ZM87.85,48.87c-.32-.98-1.79-1.99-2.8-1.93-2.64.15-2.26,4.77.89,5.06,1.93.17,2.44-1.51,1.91-3.13ZM92.39,46.9c-1.4-1.92-4.02.46-2.6,1.88.98.99,3.85-.17,2.6-1.88Z"/>
    <path class="cls-2" d="M133.31,75.18c-.18.42-.26.04-.32,0,.1.01.26-.03.32,0Z"/>
    <path class="cls-2" d="M132.98,75.18c-.05,0-.11,0-.16,0,.02-.05-.02-.12,0-.16.06.04.1.12.16.16Z"/>
    <path class="cls-2" d="M132.82,75.02c-.08-.05-.15-.16-.16-.16.03.02.11-.01.16,0-.03.02.02.11,0,.16Z"/>
    <path class="cls-2" d="M132.66,74.7s-.02.15,0,.16c-.26-.04-.17.44-.32-.16.1.02.26-.03.32,0Z"/>
    <path class="cls-2" d="M132.34,74.7s-.11-.05-.11-.09c0-.09.1-.06.11-.07-.02.05.01.11,0,.16Z"/>
    <path class="cls-2" d="M136.52,74.38c.14.16-.21.75-.32,0,.06.04.29-.04.32,0Z"/>
    <path class="cls-2" d="M132.34,74.54s-.02-.19.16-.16c.05.13-.15.13-.16.16Z"/>
    <path class="cls-2" d="M136.2,74.38s-.13-.11,0-.16c.02.05-.02.15,0,.16Z"/>
    <path class="cls-2" d="M131.38,74.38s-.16,0-.16,0c-.07-.15.23-.15.16,0Z"/>
    <path class="cls-2" d="M133.47,74.38c-.16.05-.45-.04-.64,0,.57.74.2.35,0,.48.03-.18-.16-.15-.16-.16-.04-.08-.16-.3-.16-.32-.02-.09,0-.22,0-.32.27.06.94.08.96.32Z"/>
    <path class="cls-2" d="M132.18,74.06s.11-.02.16,0c-.01.16-.15.22-.24.32-.16-.09.1-.22.08-.32Z"/>
    <path class="cls-2" d="M127.2,74.38c-.06.1-.1.23-.16.32-.02.03-.16-.03-.2.01-.22.19-.08.58-.44-.01.4,0,.5-.27.48-.65h.16c0,.11.08.28.16.32Z"/>
    <path class="cls-2" d="M136.52,74.06s.02.15,0,.16c-.09.03-.25-.03-.32,0-.03-.09.02-.23,0-.32.07.05.26.15.32.16Z"/>
    <path class="cls-2" d="M132.18,74.06s-.11-.09-.16-.16c.01.03.14-.02.16,0,.03.03-.03.15,0,.16Z"/>
    <path class="cls-2" d="M127.2,74.38s-.05-.22.01-.3c.02-.03.44.1.63-.18.02.22-.05.49,0,.7.04.19.39,0,.33.26-.23-.05-.48.14-.64.16,0-.06-.17-.25-.17-.39,0-.19.41.02.33-.25-.14-.03-.38.04-.48,0Z"/>
    <path class="cls-2" d="M136.2,73.9s-.19.02-.16-.16c.15-.02.13.06.16.16Z"/>
    <path class="cls-2" d="M132.02,73.9s-.12-.14-.16-.16c.05,0,.11,0,.16,0,.02.05-.02.12,0,.16Z"/>
    <path class="cls-2" d="M131.86,73.74c-.08,0-.27.25-.48.16-.05-.04.13-.21.16-.32.24,0,.23.11.32.16Z"/>
    <path class="cls-2" d="M133.31,73.42s.06.33-.09.34-.21-.17-.23-.18c.01.01.32-.14.32-.16Z"/>
    <path class="cls-2" d="M132.5,73.42s-.23.22-.08.32c.06-.05.18-.16.24-.16.03.18-.16.41-.16.48-.05-.01-.12.02-.16,0,.01-.15-.13-.13-.16-.16-.05-.05-.07-.15-.16-.16-.06-.16-.07-.33-.16-.48.04-.03.62.13.64.16Z"/>
    <path class="cls-2" d="M86.85,31.63l-7.71-9.8c.13-.12,1.27.73,1.45.88,2.72,2.25,4.73,5.79,6.27,8.92Z"/>
    <path class="cls-2" d="M65.31,91.25l-7.39,4.34c1.82-2.39,4.63-3.52,7.32-4.66l.08.32Z"/>
    <path class="cls-2" d="M177.19,103.15l-6.11-5.94c2.66,1.08,5.01,3.27,6.11,5.94Z"/>
    <path class="cls-2" d="M174.29,89.81c-2.3-1.04-4.77-1.94-6.75-3.53,1.97.22,4.91,1.53,6.34,2.9.19.18.46.32.41.64Z"/>
    <path class="cls-2" d="M173.97,82.9c-2.34-.63-4.96-1.25-6.91-2.73,2.48.08,5.02,1.15,6.91,2.73Z"/>
    <path class="cls-2" d="M64.35,84.19c-1.73,1.66-4.07,2.64-6.27,3.53,1.54-1.77,4.03-2.91,6.27-3.53Z"/>
    <path class="cls-2" d="M65.79,73.58c-1.28,1.29-3.48,2.39-5.3,2.41,1.38-1.22,3.53-1.84,5.3-2.41Z"/>
    <path class="cls-2" d="M48.91,113.6c-.07.16-.31-.32-.24-.48.17.14.3.24.24.48Z"/>
    <path class="cls-2" d="M144,110.86c.1.05.1.11,0,.16v-.16Z"/>
    <path class="cls-2" d="M105.66,76.95c-.34.61-1.3.44-.32.08-.78-.42-.19-.42.32-.08Z"/>
    <path class="cls-2" d="M105.18,76.15v.16s-.8.08-.8.08c.17-.26.51-.16.8-.24Z"/>
    <path class="cls-2" d="M105.42,76.47c.1.05.1.11,0,.16v-.16Z"/>
    <path class="cls-2" d="M132.1,74.86c.1.05.1.11,0,.16v-.16Z"/>
    <path class="cls-2" d="M133.55,73.74c.16.14-.24.41-.24.24l.24-.24Z"/>
    <path class="cls-2" d="M107.99,75.18c.1.05.1.11,0,.16v-.16Z"/>
    <path class="cls-2" d="M107.99,75.51c.1.05.1.11,0,.16v-.16Z"/>
    <path class="cls-1" d="M52.76,102.91c2.49,3.87,10.88,1.31,14.69.43,5.49-1.34,10.87-2.71,16.53-3.35,0,0-.16.03-.16.03l3.04-.92c.77-.24,1.18.93.41,1.21,0,0-2.98,1.09-2.98,1.09-2.71.47-5.52,1.06-8.26,1.73-5.87.95-21.4,7.52-24.51,0-.17-.88,1.08-1.09,1.26-.23h0Z"/>
    <path class="cls-1" d="M145.08,101.82c7.25,1.1,14.47,2.82,21.71,3.75,5.81,1.52,11.75,3.14,16-2.37.49-.6,1.47.12,1.03.76-3.78,6.23-10.68,5.71-16.78,3.9-.8-.16-1.67-.19-2.44-.34-6.71-1.18-13.23-2.69-19.79-4.45-.76-.21-.52-1.38.27-1.25h0Z"/>
    <path class="cls-1" d="M165.46,47.36c-1.58-3.1-3.74-4.93-5.75-6.02-1.5-1.18-3.16-1.52-4.59-1.51-.58-.08-.96-.08-1.02-.08-.09,0-.18.01-.27.03-7.4,1.61-21.86,4.73-23.58,4.95-2.54.33-3.61.99-5.01,3.08-.59.89-.89.87-2.51.35-1.54-.49-2.27-.11-3.01.7-.17.19-.32.36-.59.53-.14.09-.26.16-.35.22-.1-.08-.22-.18-.34-.28l-.26-.21c-1.41-1.16-2.37-.97-3.4-.63-.16.05-.34.11-.54.16-.12.03-.2.04-.26.05-.13-.16-.32-.51-.41-.66-.93-1.66-1.6-1.76-3.29-1.25l-.49.15s-.08.02-.11.03c-.1-.26-.23-.61-.45-.97-.79-1.32-2.38-1.34-3.76-.76-2.37-.55-13.83-3.28-18.21-5.16-3.39-1.45-8.53-2.22-12.79,0-3.49,1.81-5.78,5.22-6.82,10.14-2.11,9.95,1.47,15.27,3.36,17.28-.06.15-.1.32-.13.49-.21,1.42.77,3.16,1.85,3.98-.6.48-.89,1.15-.81,1.87.12,1.09,1.09,2.07,2.59,2.62.66.24.65.29.55.87-.34,1.87,1.66,2.87,2.85,3.46.19.1.16.96-.06,1.6-.18.51-.02,1.08.41,1.42,2.82,2.26,2.97,3.05,3.06,3.53.07.34.16.8.54,1.3.43.56.7,1.53.77,1.85.05.26.18.5.38.68,4.83,4.57,4.36,14.45,4.35,14.55-.04.71.5,1.31,1.21,1.35.72.04,1.31-.5,1.35-1.21.02-.45.53-10.81-4.87-16.28-.16-.58-.51-1.66-1.16-2.51-.01-.03-.03-.14-.05-.22-.21-1.07-.63-2.23-3.33-4.5.24-1.33.1-3.07-1.45-3.84-.94-.47-1.31-.73-1.44-.87.13-.8.29-2.67-2.22-3.58-.31-.11-.53-.24-.68-.34.44-.33.99-.87,1-1.68.02-1.1-.98-1.78-1.4-2.07-.43-.3-.82-1.04-.89-1.43.33-.19.57-.52.63-.91.08-.47-.12-.96-.5-1.24-.24-.18-5.76-4.44-3.39-15.62.85-4.03,2.64-6.81,5.31-8.28-.56.68-1.08,1.5-1.52,2.54-3.31,7.78-3.89,19.44,4.75,26.79,8.64,7.34,12.53,2.45,12.96,1.44,0,0,1.73,1.3-.43,7.2,0,0,5.76-3.17,2.59-12.53s-13.54-13.68-13.54-13.68c0,0-4.32-1.15-2.02-8.21,1.47-4.49,6.9-3.73,10.65-2.59.34.11.69.23,1.05.34,1.59.56,2.69,1.09,2.69,1.09,0,0,7.93,2.52,11.81,2.77.48.11.79.18.87.2.3.07.62.03.89-.12.24-.13.66-.26.88-.28.09.17.14.33.19.47.37,1.02,1.07,2.12,3.22,1.49l.52-.16c.09-.03.17-.05.24-.07.02.04.05.09.07.13.6,1.06,1.34,2.38,3.52,1.84.27-.07.5-.14.72-.21.53-.18.54-.18.96.18l.25.2c1.36,1.14,2.05,1.32,3.71.24.54-.35.87-.71,1.09-.95.02-.02.04-.04.06-.06.07.01.16.04.29.08,1.57.5,3.71,1.18,5.41-1.37.82-1.22,1.21-1.62,2.58-1.87,1.59,1.33,13.71-2.52,13.71-2.52,0,0,.42-.2,1.11-.49,3.47-.74,6.67-1.44,8.36-1.81,2.21.13,4.14,1.03,4.93,3.45,2.3,7.06-2.02,8.21-2.02,8.21,0,0-10.37,4.32-13.54,13.68-3.17,9.36,2.59,12.53,2.59,12.53-2.16-5.9-.43-7.2-.43-7.2.43,1.01,4.32,5.9,12.96-1.44,6.85-5.82,7.9-14.35,6.39-21.51,2.85,6.23,3.5,11.99-1.36,18.99l-3.19,3.62c-.27.31-.38.72-.29,1.12.06.25.19.48.37.66-.06.02-.11.05-.17.07-1.14.5-2.32,1.02-2.71,2.14-.14.4-.22,1.03.17,1.77.14.27.44.83.44.99,0,0-.16.28-1.2.67-3.34,1.27-4.16,3.73-4.43,4.54l-.08.24c-.21.64-.53,1.62-.91,2-2.39,2.39-3.88,4.73-4.31,6.76-1.61,7.66-3.37,10.5-4.56,11.54-.53.46-.59,1.27-.12,1.81.25.29.61.44.97.44.3,0,.6-.1.84-.32,2.19-1.91,3.95-6.14,5.38-12.94.19-.88.9-2.77,3.61-5.48.81-.81,1.21-2.03,1.53-3.01l.08-.23c.33-.99.95-2.21,2.91-2.95.93-.35,2.23-.96,2.68-2.16.41-1.07-.04-2.09-.45-2.88.29-.19.84-.43,1.19-.59.42-.18.83-.37,1.2-.57,1.08-.59,1.2-1.4,1.18-1.83-.02-.46-.22-.85-.48-1.16l2.31-2.62s.06-.07.09-.11c6.44-9.23,4.16-16.71.74-23.42Z"/>
    <path class="cls-2" d="M118.74,92.36s-1.58,4.61.29,9.36c0,0,1.15-3.89-.29-9.36Z"/>
    <path class="cls-2" d="M149.46,30.11c.33.33.64-2.63,8.06-7.68,0,0-2.88,3.84-8.06,7.68Z"/>
    <path class="cls-1" d="M205.84,75.36c-.15-22.92-9.01-43.18-23.03-58.47l-.26.95.25-.95c-.79-.86-1.59-1.71-2.41-2.54-1.29-1.3-2.61-2.56-3.98-3.78-.88-.78-1.77-1.54-2.68-2.29-1.85-1.53-3.75-2.98-5.71-4.36-1.54-1.08-3.12-2.12-4.73-3.1l.23.9,6.53,25.23-1.95-22.07c1.9,1.4,3.74,2.87,5.52,4.42l-1.27,12.38,3.71-10.17c1.37,1.28,2.7,2.61,3.98,3.98.33.36.65.73.98,1.09-.33-.36-.65-.73-.98-1.09l-7.1,24.13c-6.69-10.37-16.21-12.2-16.21-12.2,0,0,8.64,5.18,13.25,12.96,4.61,7.78,7.68,15.65,9.51,30.34,1.82,14.69,1.24,9.79,2.78,18.05,1.31,7.02,1.72,12.1-.63,16.72-.41.81-.9,1.6-1.49,2.38-3.93,5.28-10.85,3.65-14.49,2.6s-8.64-1.83-8.64-1.83c0,0-17.18-2.3-29.09-4.03-4.6-.67-8.48-.9-11.53-.94,0,0,0-.01,0-.01,0,0,0,.01,0,.01-4.85-.06-7.56.37-7.56.37,0,0-12.19,1.92-19.3,2.11-7.11.19-10.37.67-18.24,2.2-7.51,1.46-13.44,1.36-17.05-3.22h0c-.18-.23-.35-.47-.52-.71-3.55-5.28-2.49-10.56-1.44-15.26,1.06-4.71,1.92-10.09,1.92-10.09l2.69-18.05s1.63-10.75,8.06-21.7c6.23-10.6,12.28-13.01,12.66-13.15-7.73,2.04-12.52,7.63-16.36,14.8l.26-.97-7.05-23.95h0c1.11-1.2,2.25-2.37,3.42-3.51l3.49,9.55-1.2-11.68c1.93-1.74,3.94-3.4,6.02-4.96l-1.9,21.5,6.39-24.66.59-2.29c-1.67.99-3.29,2.03-4.87,3.12-2.24,1.54-4.4,3.18-6.47,4.91-.95.79-1.88,1.6-2.8,2.44-1.15,1.05-2.27,2.12-3.35,3.22-.82.83-1.62,1.67-2.4,2.52l.23.89-.24-.89c-22.43,24.56-30.48,61.11-17.24,93.54,9.43,23.97,28.19,41.29,50.25,49.99,0,0,0,0,0,0,.38.15.77.3,1.16.44-.73-2.36-1.49-4.98-2.22-7.72,0,0,0,0,0,0-2.15-8.1-4.01-17.28-3.77-24.25l-.65-1.14c3.95,3.68,7.27,4.9,7.27,4.9,20.59,8.93,29.38-.48,29.38-.48,7.58,7.01,19.58,4.99,19.58,4.99,8.99-.89,15.71-4.87,20.51-9.27l-.57,1c.24,6.97-1.61,16.16-3.77,24.25.82-.34,1.63-.7,2.43-1.06,0,0,0,0,0,0-.8.37-1.61.72-2.43,1.06-.73,2.75-1.5,5.38-2.23,7.75.39-.15.78-.32,1.17-.47,0,0,0,0,0,0,5.9-2.39,11.63-5.46,17.1-9.28,24.27-16.65,39-45.79,38.47-75.09ZM83.84,158.39c-.69-1.64-1.46-3.48-2.32-5.52.85,2.04,1.62,3.88,2.32,5.52ZM82.02,151.86c-.38-.17-.76-.34-1.13-.51,0,.02.02.04.02.06,0-.02-.02-.04-.03-.06.38.18.75.34,1.13.51ZM151.21,157.5c.34-.82.71-1.69,1.09-2.6-.38.91-.75,1.78-1.09,2.6ZM53.24,17.45c-.39.44-.79.87-1.17,1.32h0c.38-.45.78-.88,1.17-1.32ZM137.31,132.98s-16.99,3.59-21.31-6.77c0,0-3.6,9.22-20.45,5.91-16.84-3.31-22.32-18.29-22.6-20.88,0,0,7.2-1.73,12.67-2.02s10.94-.58,18.72-1.73c4.15-.61,7.84-.97,11.64-.98-.38,3.11-.84,7.66-.84,7.66-2.41,12.33-9.2,14.65-16.95,14.83-.3-.01-.59.18-.67.49-.09.34.12.69.46.78,2.12.54,4.26.69,6.48.52,2.21-.19,4.47-.79,6.58-1.9,1.96-.99,3.63-2.41,5.04-4.07,4.59,5.26,12.03,7.34,19.43,6.47.73-.02.81-1.14.1-1.27h-.06s-3.1-.66-3.1-.66c-6.01-1.48-14.37-8.28-14.97-14.75-.71-3.42-.97-6.19-1.05-8.09,3.18.01,6.44.26,10.11.84,8.21,1.29,20.31,3.16,23.04,3.16s12.1,2.17,12.1,2.17c0,0-2.6,14.97-24.34,20.31Z"/>
    <g>
      <path class="cls-1" d="M38.02,206.67s-.36.22-1,.66-1.96.66-3.96.66c-1.49,0-2.7-.35-3.64-1.05-.94-.7-1.41-1.67-1.41-2.91v-9.55c0-1.88.03-3.18.09-3.91-.45,1.85-.87,3.41-1.25,4.68-.38,1.27-.81,2.65-1.3,4.14l-2.59,7.82c-1.46.52-2.86.77-4.23.77-1.18,0-2.15-.24-2.89-.7-.74-.47-1.3-1.24-1.66-2.3l-1.77-5.59c-.3-.85-.47-1.36-.5-1.55-.33-1.12-.66-2.25-.98-3.39-.32-1.14-.64-2.43-.98-3.89.03.73.05,2.03.05,3.91v12.19c-.61.43-1.33.75-2.16.98-.83.23-1.75.34-2.75.34-1.52,0-2.74-.35-3.68-1.05-.94-.7-1.41-1.67-1.41-2.91v-26.69c1.91-.33,3.76-.5,5.55-.5,1.06,0,2.35.05,3.87.14,1.52.09,2.7.21,3.55.36l4.64,15.01c.67,2.27,1.11,3.9,1.32,4.87.27-1.21.71-2.8,1.32-4.77l4.77-15.1c2.91-.33,5.38-.5,7.41-.5,1.82,0,3.68.17,5.59.5v29.33Z"/>
      <path class="cls-1" d="M41.88,174.98c0-2.91,1.76-4.37,5.28-4.37,1.85,0,3.21.36,4.07,1.09.86.73,1.3,1.82,1.3,3.27,0,3.03-1.79,4.55-5.37,4.55s-5.28-1.52-5.28-4.55ZM47.2,182.71c1.49,0,3.15.17,5,.5v23.47c-.61.43-1.33.75-2.16.98-.83.23-1.75.34-2.75.34-1.52,0-2.74-.35-3.68-1.05-.94-.7-1.41-1.67-1.41-2.91v-20.83c1.85-.33,3.52-.5,5-.5Z"/>
      <path class="cls-1" d="M74.35,181.21c-1.36-.55-2.77-.82-4.23-.82-1.94,0-2.91.76-2.91,2.27v.55h3.14c.24.3.45.76.61,1.36.17.61.25,1.24.25,1.91,0,.97-.23,1.78-.68,2.43-.45.65-1.21.98-2.27.98h-1.05v16.78c-1.52.88-3.11,1.32-4.77,1.32-1.49,0-2.73-.38-3.73-1.14s-1.5-1.85-1.5-3.27v-13.69h-2.18c-.06-.09-.16-.27-.3-.55-.14-.27-.27-.64-.41-1.11-.14-.47-.2-1.01-.2-1.61,0-1,.24-1.82.73-2.46.48-.64,1.09-.96,1.82-.96h.55v-.68c0-3.18.8-5.56,2.39-7.14,1.59-1.58,4.07-2.36,7.44-2.36,2.85,0,4.95.49,6.3,1.48,1.35.99,2.02,2.21,2.02,3.66,0,.58-.1,1.14-.3,1.68-.2.55-.43,1-.7,1.36Z"/>
      <path class="cls-1" d="M97.95,183.21v23.97c-.61.27-1.3.5-2.07.68-.77.18-1.54.27-2.3.27-1.3,0-2.39-.27-3.25-.82-.86-.55-1.36-1.44-1.48-2.68-1.06,1.09-2.29,1.93-3.68,2.52-1.39.59-2.8.89-4.23.89-5.18,0-7.78-3.11-7.78-9.32v-15.51c1.85-.33,3.52-.5,5-.5s3.15.17,5,.5v13.37c0,.76.2,1.35.61,1.77.41.42.96.64,1.66.64s1.56-.3,2.5-.91v-14.87c1.91-.33,3.58-.5,5-.5s3.15.17,5,.5Z"/>
      <path class="cls-1" d="M112.58,201.56c.74.17,1.96.31,3.66.43,2.18.12,4.02.34,5.53.66,1.5.32,2.81.99,3.93,2,1.12,1.02,1.68,2.51,1.68,4.48,0,1.58-.52,3.01-1.57,4.3-1.05,1.29-2.64,2.32-4.77,3.09s-4.75,1.16-7.84,1.16c-4,0-7.22-.67-9.66-2.02-2.44-1.35-3.66-3.3-3.66-5.84,0-1.43.43-2.64,1.3-3.64.86-1,1.99-1.76,3.39-2.27-.21-.76-.32-1.47-.32-2.14,0-1.03.33-2.08,1-3.14-1.36-.7-2.43-1.64-3.21-2.82s-1.16-2.59-1.16-4.23c0-2,.56-3.67,1.68-5,1.12-1.33,2.55-2.32,4.3-2.96,1.74-.64,3.57-.95,5.48-.95,1.09,0,2.12.06,3.09.18,1.06.09,2.4.17,4.02.25,1.62.08,3.62.11,5.98.11h2.05c.06.15.16.45.3.89.14.44.2.89.2,1.34,0,.67-.17,1.21-.52,1.64-.35.42-.95.64-1.8.64h-1.64c.27.27.56.77.86,1.48.3.71.45,1.52.45,2.43,0,2.91-1.17,5.09-3.5,6.53-2.34,1.44-5.25,2.16-8.73,2.16-.73,0-1.27-.01-1.64-.05v.23c0,.55.37.9,1.11,1.07ZM118.28,209.81c0-.64-.38-1.06-1.14-1.27-.76-.21-1.96-.38-3.59-.5-2.03-.18-3.5-.39-4.41-.64-.12.24-.18.59-.18,1.05,0,2.21,1.64,3.32,4.91,3.32,2.94,0,4.41-.65,4.41-1.96ZM111.12,188.76c-.44.64-.67,1.55-.7,2.73.03,1.18.27,2.1.7,2.75.44.65,1.1.98,1.98.98s1.54-.33,1.98-1c.44-.67.66-1.58.66-2.73s-.22-2.09-.66-2.73c-.44-.64-1.1-.96-1.98-.96s-1.54.32-1.98.96Z"/>
      <path class="cls-1" d="M153.75,195.35c0,2.94-.59,5.36-1.77,7.25-1.18,1.89-2.76,3.27-4.73,4.14-1.97.86-4.15,1.3-6.55,1.3s-4.58-.43-6.55-1.3c-1.97-.86-3.55-2.24-4.73-4.14-1.18-1.89-1.77-4.31-1.77-7.25,0-4.34,1.23-7.53,3.71-9.6,2.47-2.06,5.59-3.09,9.35-3.09s6.87,1.03,9.35,3.09c2.47,2.06,3.71,5.26,3.71,9.6ZM137.75,195.35c0,1.85.25,3.18.75,4,.5.82,1.24,1.23,2.21,1.23s1.71-.41,2.23-1.23c.52-.82.77-2.15.77-4,0-3.52-1-5.28-3-5.28-.94,0-1.67.41-2.18,1.23-.52.82-.77,2.17-.77,4.05Z"/>
      <path class="cls-2" d="M163.03,194.8h-1.05c-.7,0-1.2-.25-1.52-.75s-.48-1.13-.48-1.89c0-.82.18-1.64.55-2.46h2.05c1.12,0,2.06-.24,2.82-.73.76-.48,1.14-1.12,1.14-1.91s-.44-1.41-1.32-1.86c-.88-.45-1.96-.68-3.23-.68-1.97,0-3.7.44-5.18,1.32-.85-1.27-1.27-2.49-1.27-3.64,0-1.61.81-2.91,2.43-3.91,1.62-1,4.01-1.5,7.16-1.5,3.79,0,6.56.75,8.32,2.25,1.76,1.5,2.64,3.36,2.64,5.57,0,1.58-.41,3.09-1.23,4.55-.82,1.46-1.85,2.5-3.09,3.14,1.39.52,2.51,1.45,3.34,2.8.83,1.35,1.25,2.83,1.25,4.43,0,1.49-.38,2.87-1.14,4.16-.76,1.29-1.96,2.33-3.59,3.14-1.64.8-3.7,1.21-6.18,1.21-3.82,0-6.53-.55-8.12-1.64-1.59-1.09-2.39-2.43-2.39-4,0-.7.12-1.35.36-1.96.24-.61.53-1.11.86-1.5.85.49,1.81.87,2.89,1.16,1.08.29,2.13.43,3.16.43,1.33,0,2.43-.24,3.27-.73.85-.48,1.27-1.2,1.27-2.14,0-1-.33-1.73-1-2.18-.67-.45-1.58-.68-2.73-.68Z"/>
      <path class="cls-2" d="M202,190.71c1.73,1.52,2.59,3.71,2.59,6.59,0,3.52-1.11,6.18-3.34,8-2.23,1.82-5.1,2.73-8.62,2.73-4.97,0-8.51-1.31-10.62-3.93-2.11-2.62-3.16-6.46-3.16-11.53,0-3.12.66-5.88,1.98-8.28,1.32-2.39,3.14-4.24,5.46-5.55,2.32-1.3,4.92-1.96,7.8-1.96,3.52,0,6.04.55,7.57,1.66,1.53,1.11,2.3,2.48,2.3,4.12,0,1.15-.38,2.36-1.14,3.64-1.12-.48-2.14-.86-3.05-1.14-.91-.27-2.03-.41-3.37-.41-1.85,0-3.42.46-4.71,1.39-1.29.93-2.19,2.19-2.71,3.8,1.85-.94,3.79-1.41,5.82-1.41,3.06,0,5.46.76,7.19,2.27ZM194.59,199.44c.55-.52.82-1.23.82-2.14,0-.82-.26-1.44-.77-1.86-.52-.42-1.18-.64-2-.64-1.24,0-2.53.45-3.87,1.36.24,1.36.66,2.38,1.25,3.05.59.67,1.42,1,2.48,1,.85,0,1.55-.26,2.09-.77Z"/>
      <path class="cls-2" d="M234.7,192.39c0,4.97-1.22,8.79-3.66,11.46-2.44,2.67-5.92,4-10.44,4s-7.99-1.33-10.41-4c-2.43-2.67-3.64-6.49-3.64-11.46s1.21-8.75,3.64-11.41c2.43-2.67,5.9-4,10.41-4s8,1.33,10.44,4c2.44,2.67,3.66,6.47,3.66,11.41ZM224.42,192.3c0-2.27-.33-4.1-.98-5.48-.65-1.38-1.6-2.07-2.84-2.07s-2.18.69-2.82,2.07c-.64,1.38-.96,3.21-.96,5.48s.32,4.25.96,5.66c.64,1.41,1.58,2.11,2.82,2.11s2.19-.7,2.84-2.11c.65-1.41.98-3.3.98-5.66Z"/>
    </g>
    <g>
      <path class="cls-2" d="M38.74,232.38c-.26,1.11-.74,1.97-1.46,2.57-.74.59-1.62.89-2.63.89-.92-.02-1.68-.25-2.29-.69-.62-.42-1.07-.91-1.36-1.47-.09-.18-.16-.35-.23-.52-.06-.17-.12-.38-.16-.64-.08-.48-.12-1.41-.12-2.79s.04-2.33.12-2.8c.09-.47.22-.85.39-1.15.28-.56.73-1.05,1.36-1.48.61-.44,1.38-.66,2.29-.68,1.12.01,2.04.35,2.75,1.03.71.68,1.15,1.52,1.34,2.53h-1.87c-.14-.48-.41-.9-.78-1.24-.39-.32-.87-.49-1.44-.5-.42.01-.77.1-1.07.26-.3.17-.55.37-.74.62-.23.26-.38.59-.46,1-.09.43-.13,1.24-.13,2.42s.04,1.99.13,2.4c.07.42.23.76.46,1.02.19.25.43.45.74.6.3.18.66.27,1.07.27.99,0,1.73-.55,2.22-1.64h1.87Z"/>
      <path class="cls-2" d="M39.71,231.45c0-.9.07-1.6.22-2.08.15-.47.38-.87.69-1.2.23-.28.55-.54.96-.76.4-.21.92-.33,1.56-.34.65.01,1.18.12,1.59.34.4.23.71.48.93.77.33.32.56.72.7,1.2.13.48.2,1.18.2,2.08s-.07,1.59-.2,2.06c-.14.47-.37.88-.7,1.23-.11.13-.24.25-.39.37-.14.14-.32.26-.53.35-.4.24-.93.36-1.59.37-.63-.01-1.15-.13-1.56-.37-.41-.21-.73-.46-.96-.73-.31-.35-.54-.76-.69-1.23-.14-.47-.22-1.16-.22-2.06ZM44.88,231.46c0-.61-.03-1.06-.08-1.34-.05-.27-.16-.51-.33-.71-.12-.19-.3-.34-.54-.45-.23-.12-.5-.17-.8-.17-.28,0-.54.06-.78.17-.23.11-.42.26-.56.45-.14.2-.25.44-.31.71-.06.28-.1.72-.1,1.32s.03,1.03.1,1.31c.06.28.17.53.31.74.14.17.33.31.56.44.24.12.5.18.78.18.3,0,.57-.06.8-.18.24-.13.42-.27.54-.44.17-.22.27-.46.33-.74.05-.28.08-.71.08-1.29Z"/>
      <path class="cls-2" d="M48.5,227.18h1.67v.91h.03c.57-.68,1.31-1.01,2.23-1.01.59.01,1.07.11,1.43.31.36.21.68.49.98.82.67-.76,1.57-1.13,2.7-1.12.71,0,1.36.25,1.95.75.58.51.88,1.25.91,2.23v5.69h-1.67v-5.1c0-.6-.16-1.06-.48-1.37-.32-.32-.73-.48-1.23-.48s-.92.16-1.24.48c-.33.31-.49.77-.49,1.37v5.1h-1.66v-5.1c0-.6-.16-1.06-.48-1.37-.32-.32-.74-.48-1.24-.48s-.91.16-1.23.48c-.34.31-.5.77-.5,1.37v5.1h-1.67v-8.56Z"/>
      <path class="cls-2" d="M62.95,227.18h1.66v.89c.55-.64,1.27-.97,2.14-1,1.02.03,1.76.4,2.23,1.12.23.27.38.62.47,1.06.08.43.12,1.17.12,2.21s-.04,1.74-.12,2.18c-.09.44-.24.8-.47,1.08-.23.33-.53.59-.9.79-.37.2-.81.31-1.32.32-.43,0-.81-.1-1.14-.29-.36-.17-.69-.42-1-.72v4.37h-1.66v-12.02ZM66.25,234.12c.39,0,.71-.08.93-.23.23-.16.39-.36.49-.61.11-.26.18-.55.22-.86.01-.31.02-.63.02-.95,0-.34,0-.68-.02-1-.04-.33-.11-.61-.22-.86-.1-.26-.26-.46-.49-.61-.23-.14-.54-.21-.93-.21-.37,0-.67.08-.89.24-.23.16-.4.37-.5.63-.1.26-.17.54-.2.84-.03.32-.05.64-.05.97,0,.3.02.61.05.91.03.32.1.61.2.87.11.26.27.47.5.63.22.17.51.25.89.25Z"/>
      <path class="cls-2" d="M71.71,223.71h1.66v9.82c0,.39.21.59.62.59h.58v1.61h-.74c-.61,0-1.11-.16-1.5-.47-.42-.32-.62-.85-.62-1.6v-9.95Z"/>
      <path class="cls-2" d="M77.32,232.11c0,.69.19,1.21.58,1.57.36.36.83.54,1.41.54.68,0,1.28-.28,1.81-.83l1.21,1.06c-.85.93-1.84,1.4-2.99,1.38-.44,0-.86-.07-1.28-.2-.21-.07-.41-.17-.61-.29-.21-.1-.4-.23-.58-.39-.35-.32-.64-.76-.85-1.34-.24-.55-.36-1.26-.36-2.14s.1-1.55.31-2.11c.21-.57.47-1.02.8-1.35.33-.34.7-.58,1.11-.73.4-.15.8-.22,1.2-.22.95.01,1.75.33,2.4.96.67.64,1,1.53,1.01,2.65v1.42h-5.17ZM80.82,230.69c-.02-.67-.19-1.17-.52-1.52-.32-.33-.73-.49-1.23-.49s-.91.16-1.23.49c-.31.34-.49.85-.52,1.52h3.5Z"/>
      <path class="cls-2" d="M84.61,224.57h1.66v2.61h1.21v1.32h-1.21v4.99c-.01.43.19.65.59.63h.62v1.61h-.87c-.58,0-1.06-.19-1.43-.56-.38-.36-.57-.87-.57-1.55v-5.13h-.84v-1.32h.84v-2.61Z"/>
      <path class="cls-2" d="M90.45,232.11c0,.69.19,1.21.58,1.57.36.36.83.54,1.41.54.68,0,1.28-.28,1.81-.83l1.21,1.06c-.85.93-1.84,1.4-2.99,1.38-.44,0-.86-.07-1.28-.2-.21-.07-.41-.17-.61-.29-.21-.1-.4-.23-.58-.39-.35-.32-.64-.76-.85-1.34-.24-.55-.36-1.26-.36-2.14s.1-1.55.31-2.11c.21-.57.47-1.02.8-1.35.33-.34.7-.58,1.11-.73.4-.15.8-.22,1.2-.22.95.01,1.75.33,2.4.96.67.64,1,1.53,1.01,2.65v1.42h-5.17ZM93.95,230.69c-.02-.67-.19-1.17-.52-1.52-.32-.33-.73-.49-1.23-.49s-.91.16-1.23.49c-.31.34-.49.85-.52,1.52h3.5Z"/>
      <path class="cls-2" d="M101.83,223.71h1.76v10.3h5.67v1.71h-7.44v-12.02Z"/>
      <path class="cls-2" d="M111.13,223.71h1.66v1.71h-1.66v-1.71ZM111.13,227.18h1.66v8.56h-1.66v-8.56Z"/>
      <path class="cls-2" d="M113.94,227.18h1.76l1.95,6h.03l1.94-6h1.77l-3.04,8.56h-1.37l-3.04-8.56Z"/>
      <path class="cls-2" d="M123.77,232.11c0,.69.19,1.21.58,1.57.36.36.83.54,1.41.54.68,0,1.28-.28,1.81-.83l1.21,1.06c-.85.93-1.84,1.4-2.99,1.38-.44,0-.86-.07-1.28-.2-.21-.07-.41-.17-.61-.29-.21-.1-.4-.23-.58-.39-.35-.32-.64-.76-.85-1.34-.24-.55-.36-1.26-.36-2.14s.1-1.55.31-2.11c.21-.57.47-1.02.8-1.35.33-.34.7-.58,1.11-.73.4-.15.8-.22,1.2-.22.95.01,1.75.33,2.4.96.67.64,1,1.53,1.01,2.65v1.42h-5.17ZM127.27,230.69c-.02-.67-.19-1.17-.52-1.52-.32-.33-.73-.49-1.23-.49s-.91.16-1.23.49c-.31.34-.49.85-.52,1.52h3.5Z"/>
      <path class="cls-2" d="M131.2,233.12c.68.73,1.55,1.1,2.63,1.1.48,0,.87-.1,1.18-.29s.46-.46.46-.81c0-.31-.09-.52-.27-.64-.19-.13-.44-.2-.74-.21l-1.47-.13c-.7-.07-1.27-.31-1.7-.73-.45-.41-.68-.98-.69-1.71.01-.88.31-1.54.9-1.98.58-.44,1.3-.66,2.19-.66.38,0,.73.02,1.03.07.3.06.59.13.85.23.51.21.97.5,1.37.86l-1.03,1.24c-.32-.24-.66-.44-1.02-.59-.35-.14-.76-.21-1.22-.21-.52,0-.89.1-1.1.29-.22.19-.33.44-.33.74-.01.19.07.36.25.5.16.16.44.26.85.31l1.38.11c.86.07,1.49.34,1.87.81.36.46.54,1.05.54,1.76-.01.83-.34,1.47-.98,1.92-.64.46-1.46.7-2.45.71-1.35,0-2.57-.51-3.65-1.53l1.16-1.18Z"/>
      <path class="cls-2" d="M139.16,224.57h1.66v2.61h1.21v1.32h-1.21v4.99c-.01.43.19.65.59.63h.62v1.61h-.87c-.58,0-1.06-.19-1.44-.56-.38-.36-.57-.87-.57-1.55v-5.13h-.84v-1.32h.84v-2.61Z"/>
      <path class="cls-2" d="M143.34,231.45c0-.9.07-1.6.22-2.08.15-.47.38-.87.69-1.2.23-.28.55-.54.96-.76.4-.21.92-.33,1.56-.34.65.01,1.18.12,1.59.34.4.23.71.48.93.77.33.32.56.72.7,1.2.13.48.2,1.18.2,2.08s-.07,1.59-.2,2.06c-.14.47-.37.88-.7,1.23-.11.13-.24.25-.39.37-.14.14-.32.26-.53.35-.4.24-.93.36-1.59.37-.63-.01-1.15-.13-1.56-.37-.41-.21-.73-.46-.96-.73-.31-.35-.54-.76-.69-1.23-.14-.47-.22-1.16-.22-2.06ZM148.51,231.46c0-.61-.03-1.06-.08-1.34-.05-.27-.16-.51-.33-.71-.12-.19-.3-.34-.54-.45-.23-.12-.5-.17-.8-.17-.28,0-.54.06-.78.17-.23.11-.42.26-.56.45-.14.2-.25.44-.31.71-.06.28-.1.72-.1,1.32s.03,1.03.1,1.31c.06.28.17.53.31.74.14.17.33.31.56.44.24.12.5.18.78.18.3,0,.57-.06.8-.18.24-.13.42-.27.54-.44.17-.22.27-.46.33-.74.05-.28.08-.71.08-1.29Z"/>
      <path class="cls-2" d="M158.29,234.36c-.36.43-.79.77-1.28,1.04-.49.28-1.06.42-1.7.43-.98,0-1.84-.34-2.57-1.03-.77-.69-1.16-1.8-1.18-3.34.02-1.56.41-2.68,1.18-3.38.74-.69,1.6-1.03,2.58-1.01.64.01,1.21.15,1.7.41.49.27.91.63,1.28,1.08l-1.23,1.13c-.42-.58-.98-.88-1.68-.9-1.42-.02-2.13.87-2.16,2.68.02,1.8.74,2.68,2.16,2.66.7-.01,1.26-.31,1.68-.89l1.23,1.13Z"/>
      <path class="cls-2" d="M159.69,223.71h1.66v7.48h.03l3.19-4.01h2l-2.86,3.34,3.25,5.22h-2.09l-2.21-4-1.31,1.53v2.46h-1.66v-12.02Z"/>
      <path class="cls-2" d="M180.5,232.38c-.26,1.11-.74,1.97-1.46,2.57-.74.59-1.62.89-2.63.89-.92-.02-1.68-.25-2.29-.69-.62-.42-1.08-.91-1.36-1.47-.09-.18-.16-.35-.23-.52-.06-.17-.12-.38-.16-.64-.08-.48-.12-1.41-.12-2.79s.04-2.33.12-2.8c.09-.47.22-.85.39-1.15.28-.56.73-1.05,1.36-1.48.61-.44,1.38-.66,2.29-.68,1.12.01,2.04.35,2.75,1.03.71.68,1.16,1.52,1.34,2.53h-1.87c-.14-.48-.41-.9-.78-1.24-.39-.32-.87-.49-1.44-.5-.42.01-.77.1-1.07.26-.3.17-.55.37-.74.62-.23.26-.38.59-.46,1-.09.43-.13,1.24-.13,2.42s.04,1.99.13,2.4c.07.42.23.76.46,1.02.19.25.43.45.74.6.3.18.66.27,1.07.27.99,0,1.73-.55,2.22-1.64h1.87Z"/>
      <path class="cls-2" d="M186.24,234.98h-.03c-.15.29-.39.51-.72.64-.32.14-.76.21-1.33.21-.93-.01-1.64-.26-2.14-.76-.53-.48-.79-1.1-.79-1.85s.23-1.32.69-1.79c.46-.48,1.13-.73,2.01-.74h2.31v-.9c.01-.76-.56-1.12-1.7-1.1-.42,0-.74.04-.98.13-.25.11-.45.28-.59.53l-1.31-1.03c.63-.85,1.57-1.27,2.8-1.25,1.04-.01,1.87.19,2.5.61.62.43.94,1.17.95,2.21v5.84h-1.66v-.76ZM186.24,232.11h-2c-.97.02-1.45.37-1.44,1.03,0,.29.13.54.38.74.24.23.64.34,1.19.34.7.01,1.19-.07,1.48-.26.26-.18.39-.59.39-1.24v-.62Z"/>
      <path class="cls-2" d="M190.33,227.18h1.66v.91h.03c.55-.68,1.27-1.01,2.16-1.01.67.01,1.25.23,1.74.66l-1.21,1.49c-.35-.29-.72-.43-1.1-.43-.43,0-.79.14-1.1.43-.34.28-.52.73-.53,1.36v5.16h-1.66v-8.56Z"/>
      <path class="cls-2" d="M197.84,232.11c0,.69.19,1.21.57,1.57.36.36.83.54,1.41.54.68,0,1.28-.28,1.81-.83l1.21,1.06c-.85.93-1.84,1.4-2.99,1.38-.44,0-.86-.07-1.28-.2-.21-.07-.41-.17-.61-.29-.21-.1-.4-.23-.58-.39-.35-.32-.64-.76-.85-1.34-.24-.55-.36-1.26-.36-2.14s.1-1.55.31-2.11c.21-.57.47-1.02.8-1.35.33-.34.7-.58,1.11-.73.4-.15.8-.22,1.2-.22.95.01,1.75.33,2.4.96.66.64,1,1.53,1.01,2.65v1.42h-5.17ZM201.35,230.69c-.02-.67-.2-1.17-.52-1.52-.32-.33-.73-.49-1.23-.49s-.91.16-1.23.49c-.31.34-.49.85-.52,1.52h3.51Z"/>
    </g>
  </g>
</svg>